<?xml version="1.0" encoding="utf-8"?>
<!-- Generator: Adobe Illustrator 18.0.0, SVG Export Plug-In . SVG Version: 6.00 Build 0)  -->
<!DOCTYPE svg PUBLIC "-//W3C//DTD SVG 1.1//EN" "http://www.w3.org/Graphics/SVG/1.1/DTD/svg11.dtd">
<svg version="1.1" id="Layer_1" xmlns="http://www.w3.org/2000/svg" xmlns:xlink="http://www.w3.org/1999/xlink" x="0px" y="0px"
	 viewBox="0 0 1280 800" enable-background="new 0 0 1280 800" xml:space="preserve">
<g>
	<path fill="#FFFFFF" d="M334,328.4c20.2,7.7,39.2,18.5,56.8,32.2c-25.6-6.4-53-3.6-76.7,8.9c23.8,6,46.8,16.2,68.1,30.4
		c-0.9,29.2,9.6,58.6,32.1,81.1c42.8,42.8,112,42.6,154.6,0c6-6,11.1-12.6,15.7-19.8c61.1,67.5,87.3,155.2,78.6,240.4
		c18.1-4.9,35.3-14.1,49.4-28.3c26.8-26.8,37-64.1,30-99c12.3,13,20.7,28.7,25.5,44.7c0.4-0.4,0.6-0.6,0.9-0.9
		c37.5-37.5,42.2-95.4,13.8-137.8c8.1,4.7,16,10.7,23,17.7c4.9,4.9,9.2,10.4,13.2,15.8c20.9-40.5,14.7-91.6-18.5-126
		c47.1,5.7,93,26.6,129.4,63c6.2,6.2,12.1,12.8,17.3,19.6c-12.4-56.2-40.2-109.6-83.9-153.3c-142.4-142.4-337.9-102.2-440.1,0
		c-3.4,3.4-6.6,6.6-9.8,10.2C386.6,322.9,359.8,323.3,334,328.4z M464.7,411.9l9.1,0v17h17v9.1l-17.2-0.2v17h-9.1v-17h-17v-9.1h17
		L464.7,411.9z"/>
</g>
</svg>
